<svg xmlns="http://www.w3.org/2000/svg" viewBox="3.552 0.648 8.616 8.76" style="max-height: 500px" width="8.616" height="8.76"><path d="M13.566 8.524c-.588-.55-.882-1.275-.882-2.173 0-.898.382-1.62 1.146-2.167.46-.33.814-.714 1.061-1.152.034-.06.073-.09.118-.09a.17.17 0 0 1 .163.096c.18.344.78.717 1.802 1.117.098.034.146.073.146.118 0 .042-.037.09-.112.146-.386.3-.578.723-.578 1.27 0 .542.151 1.2.455 1.97.187.48.28.912.28 1.297 0 .974-.56 1.648-1.679 2.022a2.789 2.789 0 0 1-.887.146c-.779 0-1.308-.178-1.589-.533-.142-.18-.213-.352-.213-.517 0-.161.048-.285.146-.37a.547.547 0 0 1 .376-.147c.31 0 .59.165.837.494.363.483.707.725 1.033.725a.629.629 0 0 0 .219-.04c.471-.172.707-.58.707-1.224 0-.453-.118-.979-.354-1.577-.018-.05-.043-.073-.073-.073a.112.112 0 0 0-.073.028l-1.47 1.083c-.087.064-.154.096-.203.096-.045 0-.067-.034-.067-.101 0-.105-.103-.253-.31-.444zm.163-2.763c.62.559.226 1.5.68 1.994.164.18.304.27.42.27a.46.46 0 0 0 .281-.08l.416-.308c.045-.034.067-.064.067-.09a.26.26 0 0 0-.017-.09 3.757 3.757 0 0 1-.219-1.201c0-.371.185-.773.556-1.208.034-.037.05-.073.05-.106 0-.034-.03-.058-.09-.073a2.96 2.96 0 0 1-1.274-.775.188.188 0 0 0-.135-.062c-.048 0-.091.024-.129.073-.404.531-1.032 1.273-.606 1.656zm-9.894-.73c0-1.272.316-2.313.949-3.122C5.42 1.101 6.17.696 7.035.696c.6 0 1.045.26 1.337.781.034.06.07.09.107.09a.217.217 0 0 0 .112-.034l1.32-.77a.432.432 0 0 1 .207-.067c.101 0 .182.06.242.18.116.232.264.462.443.69.18.225.43.413.753.562.104.049.157.107.157.174 0 .068-.038.13-.112.186l-1.174.842c-.067.049-.101.094-.101.135 0 .037.054.067.163.09.33.06.65.305.96.735.314.43.472.981.472 1.651 0 1.43-.801 2.443-2.404 3.038a3.39 3.39 0 0 1-.696.168 6.249 6.249 0 0 1-.96.062c-1.973 0-3.244-.896-3.813-2.69a4.91 4.91 0 0 1-.213-1.488ZM5.3 4.46c0 .651.079 1.222.236 1.712.577 1.8 1.496 2.701 2.757 2.701.165 0 .333-.011.506-.033.176-.027.363-.077.561-.152.872-.33 1.308-1.001 1.308-2.016 0-.576-.181-1.115-.544-1.617-.363-.502-.674-.753-.932-.753a.366.366 0 0 0-.22.073c-.063.045-.117.068-.162.068-.098 0-.146-.049-.146-.146 0-.06.04-.118.118-.174l1.387-.994c.048-.034.073-.071.073-.112 0-.042-.032-.077-.096-.107a1.938 1.938 0 0 1-.634-.522 2.235 2.235 0 0 1-.365-.63c-.019-.06-.05-.09-.096-.09a.208.208 0 0 0-.112.029l-.736.427c-.426.247-.64.556-.64.926 0 .4.255.876.764 1.427.509.55.764 1.065.764 1.544 0 .659-.52 1.261-1.561 1.808a.378.378 0 0 1-.175.05c-.093 0-.14-.05-.14-.151 0-.064.052-.122.157-.174.345-.173.517-.416.517-.73 0-.386-.253-.85-.758-1.393-.506-.546-.758-1.05-.758-1.51 0-.742.56-1.432 1.679-2.072.052-.03.078-.064.078-.101a.216.216 0 0 0-.028-.107c-.194-.352-.49-.528-.887-.528-.565 0-1.026.255-1.381.764-.356.509-.534 1.37-.534 2.583Z" style="font-size:11.5px;line-height:0;font-family:UnifrakturMaguntia;-inkscape-font-specification:UnifrakturMaguntia;stroke-width:.15;stroke-linecap:square;stroke-linejoin:bevel;paint-order:markers stroke fill"/></svg>